<?xml version="1.0" encoding="UTF-8" standalone="no"?>
<!DOCTYPE svg PUBLIC "-//W3C//DTD SVG 1.1//EN"
 "http://www.w3.org/Graphics/SVG/1.1/DTD/svg11.dtd">
<!-- Generated by graphviz version 2.26.3 (20100126.1600)
 -->
<!-- Title: G Pages: 1 -->
<svg width="134pt" height="172pt"
 viewBox="0.00 0.00 134.00 172.00" xmlns="http://www.w3.org/2000/svg" xmlns:xlink="http://www.w3.org/1999/xlink">
<g id="graph1" class="graph" transform="scale(1 1) rotate(0) translate(4 168)">
<title>G</title>
<polygon fill="white" stroke="white" points="-4,5 -4,-168 131,-168 131,5 -4,5"/>
<!-- A -->
<g id="A" class="node"><title>A</title>
<polygon fill="#428bca" stroke="#428bca" points="48,-111 78,-111 90,-123 90,-151 78,-163 48,-163 36,-151 36,-123 48,-111"/>
<path fill="#428bca" stroke="#428bca" d="M78,-111C84,-111 90,-117 90,-123"/>
<path fill="#428bca" stroke="#428bca" d="M90,-151C90,-157 84,-163 78,-163"/>
<path fill="#428bca" stroke="#428bca" d="M48,-163C42,-163 36,-157 36,-151"/>
<path fill="#428bca" stroke="#428bca" d="M36,-123C36,-117 42,-111 48,-111"/>
<polyline fill="none" stroke="black" points="48,-111 78,-111 "/>
<path fill="none" stroke="black" d="M78,-111C84,-111 90,-117 90,-123"/>
<polyline fill="none" stroke="black" points="90,-123 90,-151 "/>
<path fill="none" stroke="black" d="M90,-151C90,-157 84,-163 78,-163"/>
<polyline fill="none" stroke="black" points="78,-163 48,-163 "/>
<path fill="none" stroke="black" d="M48,-163C42,-163 36,-157 36,-151"/>
<polyline fill="none" stroke="black" points="36,-151 36,-123 "/>
<path fill="none" stroke="black" d="M36,-123C36,-117 42,-111 48,-111"/>
<text text-anchor="middle" x="63" y="-146.4" font-family="Trebuchet MS" font-size="14.00" fill="white">A</text>
<polyline fill="none" stroke="black" points="36,-137 90,-137 "/>
<text text-anchor="middle" x="63" y="-120.4" font-family="Trebuchet MS" font-size="14.00" fill="white">5</text>
</g>
<!-- B -->
<g id="B" class="node"><title>B</title>
<polygon fill="#428bca" stroke="#428bca" points="12,-1 42,-1 54,-13 54,-41 42,-53 12,-53 0,-41 0,-13 12,-1"/>
<path fill="#428bca" stroke="#428bca" d="M42,-1C48,-1 54,-7 54,-13"/>
<path fill="#428bca" stroke="#428bca" d="M54,-41C54,-47 48,-53 42,-53"/>
<path fill="#428bca" stroke="#428bca" d="M12,-53C6,-53 0,-47 0,-41"/>
<path fill="#428bca" stroke="#428bca" d="M0,-13C0,-7 6,-1 12,-1"/>
<polyline fill="none" stroke="black" points="12,-1 42,-1 "/>
<path fill="none" stroke="black" d="M42,-1C48,-1 54,-7 54,-13"/>
<polyline fill="none" stroke="black" points="54,-13 54,-41 "/>
<path fill="none" stroke="black" d="M54,-41C54,-47 48,-53 42,-53"/>
<polyline fill="none" stroke="black" points="42,-53 12,-53 "/>
<path fill="none" stroke="black" d="M12,-53C6,-53 0,-47 0,-41"/>
<polyline fill="none" stroke="black" points="0,-41 0,-13 "/>
<path fill="none" stroke="black" d="M0,-13C0,-7 6,-1 12,-1"/>
<text text-anchor="middle" x="27" y="-36.4" font-family="Trebuchet MS" font-size="14.00" fill="white">B</text>
<polyline fill="none" stroke="black" points="0,-27 54,-27 "/>
<text text-anchor="middle" x="27" y="-10.4" font-family="Trebuchet MS" font-size="14.00" fill="white">12</text>
</g>
<!-- A&#45;&gt;B -->
<g id="edge2" class="edge"><title>A&#45;&gt;B</title>
<path fill="none" stroke="black" d="M54.4685,-110.932C49.7951,-96.6517 43.9313,-78.7344 38.8228,-63.1252"/>
<polygon fill="black" stroke="black" points="35.595,-53.2626 42.9823,-61.3668 37.1502,-58.0145 38.7055,-62.7665 38.7055,-62.7665 38.7055,-62.7665 37.1502,-58.0145 34.4287,-64.1662 35.595,-53.2626 35.595,-53.2626"/>
<text text-anchor="middle" x="53" y="-78" font-family="Trebuchet MS" font-size="15.00">8</text>
</g>
<!-- C -->
<g id="C" class="node"><title>C</title>
<polygon fill="#428bca" stroke="#428bca" points="84,-1 114,-1 126,-13 126,-41 114,-53 84,-53 72,-41 72,-13 84,-1"/>
<path fill="#428bca" stroke="#428bca" d="M114,-1C120,-1 126,-7 126,-13"/>
<path fill="#428bca" stroke="#428bca" d="M126,-41C126,-47 120,-53 114,-53"/>
<path fill="#428bca" stroke="#428bca" d="M84,-53C78,-53 72,-47 72,-41"/>
<path fill="#428bca" stroke="#428bca" d="M72,-13C72,-7 78,-1 84,-1"/>
<polyline fill="none" stroke="black" points="84,-1 114,-1 "/>
<path fill="none" stroke="black" d="M114,-1C120,-1 126,-7 126,-13"/>
<polyline fill="none" stroke="black" points="126,-13 126,-41 "/>
<path fill="none" stroke="black" d="M126,-41C126,-47 120,-53 114,-53"/>
<polyline fill="none" stroke="black" points="114,-53 84,-53 "/>
<path fill="none" stroke="black" d="M84,-53C78,-53 72,-47 72,-41"/>
<polyline fill="none" stroke="black" points="72,-41 72,-13 "/>
<path fill="none" stroke="black" d="M72,-13C72,-7 78,-1 84,-1"/>
<text text-anchor="middle" x="99" y="-36.4" font-family="Trebuchet MS" font-size="14.00" fill="white">C</text>
<polyline fill="none" stroke="black" points="72,-27 126,-27 "/>
<text text-anchor="middle" x="99" y="-10.4" font-family="Trebuchet MS" font-size="14.00" fill="white">2</text>
</g>
<!-- A&#45;&gt;C -->
<g id="edge4" class="edge"><title>A&#45;&gt;C</title>
<path fill="none" stroke="black" d="M71.5315,-110.932C76.2049,-96.6517 82.0687,-78.7344 87.1772,-63.1252"/>
<polygon fill="black" stroke="black" points="90.405,-53.2626 91.5713,-64.1662 88.8498,-58.0145 87.2945,-62.7665 87.2945,-62.7665 87.2945,-62.7665 88.8498,-58.0145 83.0177,-61.3668 90.405,-53.2626 90.405,-53.2626"/>
<text text-anchor="middle" x="88" y="-78" font-family="Trebuchet MS" font-size="15.00">4</text>
</g>
</g>
</svg>
