<?xml version="1.0" encoding="UTF-8" standalone="no"?>
<!DOCTYPE svg PUBLIC "-//W3C//DTD SVG 1.1//EN"
 "http://www.w3.org/Graphics/SVG/1.1/DTD/svg11.dtd">
<!-- Generated by graphviz version 2.36.0 (20140111.2315)
 -->
<!-- Title: G Pages: 1 -->
<svg width="290pt" height="544pt"
 viewBox="0.00 0.00 290.00 544.00" xmlns="http://www.w3.org/2000/svg" xmlns:xlink="http://www.w3.org/1999/xlink">
<g id="graph0" class="graph" transform="scale(1 1) rotate(0) translate(4 540)">
<title>G</title>
<polygon fill="white" stroke="none" points="-4,4 -4,-540 286,-540 286,4 -4,4"/>
<!-- A -->
<g id="A" class="node"><title>A</title>
<path fill="#428bca" stroke="black" d="M123,-491C123,-491 153,-491 153,-491 159,-491 165,-497 165,-503 165,-503 165,-523 165,-523 165,-529 159,-535 153,-535 153,-535 123,-535 123,-535 117,-535 111,-529 111,-523 111,-523 111,-503 111,-503 111,-497 117,-491 123,-491"/>
<text text-anchor="middle" x="137.75" y="-519.8" font-family="Times,serif" font-size="14.00" fill="white">A</text>
<polyline fill="none" stroke="black" points="111,-513 164.5,-513 "/>
<text text-anchor="middle" x="137.75" y="-497.8" font-family="Times,serif" font-size="14.00" fill="white">4.0</text>
</g>
<!-- B -->
<g id="B" class="node"><title>B</title>
<path fill="#428bca" stroke="black" d="M84,-393C84,-393 114,-393 114,-393 120,-393 126,-399 126,-405 126,-405 126,-425 126,-425 126,-431 120,-437 114,-437 114,-437 84,-437 84,-437 78,-437 72,-431 72,-425 72,-425 72,-405 72,-405 72,-399 78,-393 84,-393"/>
<text text-anchor="middle" x="98.75" y="-421.8" font-family="Times,serif" font-size="14.00" fill="white">B</text>
<polyline fill="none" stroke="black" points="72,-415 125.5,-415 "/>
<text text-anchor="middle" x="98.75" y="-399.8" font-family="Times,serif" font-size="14.00" fill="white">5.0</text>
</g>
<!-- A&#45;&gt;B -->
<g id="edge1" class="edge"><title>A&#45;&gt;B</title>
<path fill="none" stroke="black" d="M129.345,-490.694C124.093,-477.769 117.304,-461.056 111.479,-446.717"/>
<polygon fill="black" stroke="black" points="107.631,-437.246 115.564,-444.817 109.513,-441.878 111.395,-446.511 111.395,-446.511 111.395,-446.511 109.513,-441.878 107.226,-448.204 107.631,-437.246 107.631,-437.246"/>
<text text-anchor="middle" x="130.375" y="-459.5" font-family="Times,serif" font-size="15.00">1.0</text>
</g>
<!-- C -->
<g id="C" class="node"><title>C</title>
<path fill="#428bca" stroke="black" d="M156,-393C156,-393 186,-393 186,-393 192,-393 198,-399 198,-405 198,-405 198,-425 198,-425 198,-431 192,-437 186,-437 186,-437 156,-437 156,-437 150,-437 144,-431 144,-425 144,-425 144,-405 144,-405 144,-399 150,-393 156,-393"/>
<text text-anchor="middle" x="170.75" y="-421.8" font-family="Times,serif" font-size="14.00" fill="white">C</text>
<polyline fill="none" stroke="black" points="144,-415 197.5,-415 "/>
<text text-anchor="middle" x="170.75" y="-399.8" font-family="Times,serif" font-size="14.00" fill="white">3.0</text>
</g>
<!-- A&#45;&gt;C -->
<g id="edge2" class="edge"><title>A&#45;&gt;C</title>
<path fill="none" stroke="black" d="M145.324,-490.694C149.767,-477.769 155.512,-461.056 160.441,-446.717"/>
<polygon fill="black" stroke="black" points="163.697,-437.246 164.701,-448.166 162.071,-441.974 160.446,-446.703 160.446,-446.703 160.446,-446.703 162.071,-441.974 156.19,-445.24 163.697,-437.246 163.697,-437.246"/>
<text text-anchor="middle" x="166.375" y="-459.5" font-family="Times,serif" font-size="15.00">1.0</text>
</g>
<!-- D -->
<g id="D" class="node"><title>D</title>
<path fill="#428bca" stroke="black" d="M12,-295C12,-295 42,-295 42,-295 48,-295 54,-301 54,-307 54,-307 54,-327 54,-327 54,-333 48,-339 42,-339 42,-339 12,-339 12,-339 6,-339 0,-333 0,-327 0,-327 0,-307 0,-307 0,-301 6,-295 12,-295"/>
<text text-anchor="middle" x="26.75" y="-323.8" font-family="Times,serif" font-size="14.00" fill="white">D</text>
<polyline fill="none" stroke="black" points="0,-317 53.5,-317 "/>
<text text-anchor="middle" x="26.75" y="-301.8" font-family="Times,serif" font-size="14.00" fill="white">7.0</text>
</g>
<!-- B&#45;&gt;D -->
<g id="edge3" class="edge"><title>B&#45;&gt;D</title>
<path fill="none" stroke="black" d="M83.0209,-392.694C73.0468,-379.396 60.0663,-362.088 49.112,-347.483"/>
<polygon fill="black" stroke="black" points="42.9345,-339.246 52.5345,-344.546 45.9345,-343.246 48.9345,-347.246 48.9345,-347.246 48.9345,-347.246 45.9345,-343.246 45.3345,-349.946 42.9345,-339.246 42.9345,-339.246"/>
<text text-anchor="middle" x="77.375" y="-361.5" font-family="Times,serif" font-size="15.00">1.0</text>
</g>
<!-- E -->
<g id="E" class="node"><title>E</title>
<path fill="#428bca" stroke="black" d="M84,-295C84,-295 114,-295 114,-295 120,-295 126,-301 126,-307 126,-307 126,-327 126,-327 126,-333 120,-339 114,-339 114,-339 84,-339 84,-339 78,-339 72,-333 72,-327 72,-327 72,-307 72,-307 72,-301 78,-295 84,-295"/>
<text text-anchor="middle" x="98.75" y="-323.8" font-family="Times,serif" font-size="14.00" fill="white">E</text>
<polyline fill="none" stroke="black" points="72,-317 125.5,-317 "/>
<text text-anchor="middle" x="98.75" y="-301.8" font-family="Times,serif" font-size="14.00" fill="white">9.0</text>
</g>
<!-- B&#45;&gt;E -->
<g id="edge4" class="edge"><title>B&#45;&gt;E</title>
<path fill="none" stroke="black" d="M99,-392.694C99,-380.017 99,-363.697 99,-349.547"/>
<polygon fill="black" stroke="black" points="99,-339.246 103.5,-349.246 99,-344.246 99.0001,-349.246 99.0001,-349.246 99.0001,-349.246 99,-344.246 94.5001,-349.246 99,-339.246 99,-339.246"/>
<text text-anchor="middle" x="108.375" y="-361.5" font-family="Times,serif" font-size="15.00">1.0</text>
</g>
<!-- F -->
<g id="F" class="node"><title>F</title>
<path fill="#428bca" stroke="black" d="M156,-295C156,-295 186,-295 186,-295 192,-295 198,-301 198,-307 198,-307 198,-327 198,-327 198,-333 192,-339 186,-339 186,-339 156,-339 156,-339 150,-339 144,-333 144,-327 144,-327 144,-307 144,-307 144,-301 150,-295 156,-295"/>
<text text-anchor="middle" x="170.75" y="-323.8" font-family="Times,serif" font-size="14.00" fill="white">F</text>
<polyline fill="none" stroke="black" points="144,-317 197.5,-317 "/>
<text text-anchor="middle" x="170.75" y="-301.8" font-family="Times,serif" font-size="14.00" fill="white">6.0</text>
</g>
<!-- C&#45;&gt;F -->
<g id="edge5" class="edge"><title>C&#45;&gt;F</title>
<path fill="none" stroke="black" d="M171,-392.694C171,-380.017 171,-363.697 171,-349.547"/>
<polygon fill="black" stroke="black" points="171,-339.246 175.5,-349.246 171,-344.246 171,-349.246 171,-349.246 171,-349.246 171,-344.246 166.5,-349.246 171,-339.246 171,-339.246"/>
<text text-anchor="middle" x="180.375" y="-361.5" font-family="Times,serif" font-size="15.00">1.0</text>
</g>
<!-- G -->
<g id="G" class="node"><title>G</title>
<path fill="#428bca" stroke="black" d="M228,-295C228,-295 258,-295 258,-295 264,-295 270,-301 270,-307 270,-307 270,-327 270,-327 270,-333 264,-339 258,-339 258,-339 228,-339 228,-339 222,-339 216,-333 216,-327 216,-327 216,-307 216,-307 216,-301 222,-295 228,-295"/>
<text text-anchor="middle" x="242.75" y="-323.8" font-family="Times,serif" font-size="14.00" fill="white">G</text>
<polyline fill="none" stroke="black" points="216,-317 269.5,-317 "/>
<text text-anchor="middle" x="242.75" y="-301.8" font-family="Times,serif" font-size="14.00" fill="white">8.0</text>
</g>
<!-- C&#45;&gt;G -->
<g id="edge6" class="edge"><title>C&#45;&gt;G</title>
<path fill="none" stroke="black" d="M186.979,-392.694C196.953,-379.396 209.934,-362.088 220.888,-347.483"/>
<polygon fill="black" stroke="black" points="227.066,-339.246 224.666,-349.946 224.066,-343.246 221.065,-347.246 221.065,-347.246 221.065,-347.246 224.066,-343.246 217.465,-344.546 227.066,-339.246 227.066,-339.246"/>
<text text-anchor="middle" x="221.375" y="-361.5" font-family="Times,serif" font-size="15.00">1.0</text>
</g>
<!-- H -->
<g id="H" class="node"><title>H</title>
<path fill="#428bca" stroke="black" d="M12,-197C12,-197 42,-197 42,-197 48,-197 54,-203 54,-209 54,-209 54,-229 54,-229 54,-235 48,-241 42,-241 42,-241 12,-241 12,-241 6,-241 0,-235 0,-229 0,-229 0,-209 0,-209 0,-203 6,-197 12,-197"/>
<text text-anchor="middle" x="26.75" y="-225.8" font-family="Times,serif" font-size="14.00" fill="white">H</text>
<polyline fill="none" stroke="black" points="0,-219 53.5,-219 "/>
<text text-anchor="middle" x="26.75" y="-203.8" font-family="Times,serif" font-size="14.00" fill="white">5.0</text>
</g>
<!-- D&#45;&gt;H -->
<g id="edge7" class="edge"><title>D&#45;&gt;H</title>
<path fill="none" stroke="black" d="M27,-294.694C27,-282.017 27,-265.697 27,-251.547"/>
<polygon fill="black" stroke="black" points="27,-241.246 31.5001,-251.246 27,-246.246 27.0001,-251.246 27.0001,-251.246 27.0001,-251.246 27,-246.246 22.5001,-251.246 27,-241.246 27,-241.246"/>
<text text-anchor="middle" x="36.375" y="-263.5" font-family="Times,serif" font-size="15.00">1.0</text>
</g>
<!-- I -->
<g id="I" class="node"><title>I</title>
<path fill="#428bca" stroke="black" d="M87,-197C87,-197 117,-197 117,-197 123,-197 129,-203 129,-209 129,-209 129,-229 129,-229 129,-235 123,-241 117,-241 117,-241 87,-241 87,-241 81,-241 75,-235 75,-229 75,-229 75,-209 75,-209 75,-203 81,-197 87,-197"/>
<text text-anchor="middle" x="101.75" y="-225.8" font-family="Times,serif" font-size="14.00" fill="white">I</text>
<polyline fill="none" stroke="black" points="75,-219 128.5,-219 "/>
<text text-anchor="middle" x="101.75" y="-203.8" font-family="Times,serif" font-size="14.00" fill="white">4.0</text>
</g>
<!-- D&#45;&gt;I -->
<g id="edge8" class="edge"><title>D&#45;&gt;I</title>
<path fill="none" stroke="black" d="M43.6449,-294.694C54.0346,-281.396 67.556,-264.088 78.9667,-249.483"/>
<polygon fill="black" stroke="black" points="85.4016,-241.246 82.7912,-251.897 82.3234,-245.186 79.2451,-249.126 79.2451,-249.126 79.2451,-249.126 82.3234,-245.186 75.699,-246.356 85.4016,-241.246 85.4016,-241.246"/>
<text text-anchor="middle" x="78.375" y="-263.5" font-family="Times,serif" font-size="15.00">1.0</text>
</g>
<!-- F&#45;&gt;I -->
<g id="edge9" class="edge"><title>F&#45;&gt;I</title>
<path fill="none" stroke="black" d="M155.687,-294.694C146.128,-281.396 133.689,-264.088 123.191,-249.483"/>
<polygon fill="black" stroke="black" points="117.271,-241.246 126.761,-246.74 120.189,-245.306 123.107,-249.366 123.107,-249.366 123.107,-249.366 120.189,-245.306 119.453,-251.993 117.271,-241.246 117.271,-241.246"/>
<text text-anchor="middle" x="150.375" y="-263.5" font-family="Times,serif" font-size="15.00">1.0</text>
</g>
<!-- J -->
<g id="J" class="node"><title>J</title>
<path fill="#428bca" stroke="black" d="M165,-197C165,-197 195,-197 195,-197 201,-197 207,-203 207,-209 207,-209 207,-229 207,-229 207,-235 201,-241 195,-241 195,-241 165,-241 165,-241 159,-241 153,-235 153,-229 153,-229 153,-209 153,-209 153,-203 159,-197 165,-197"/>
<text text-anchor="middle" x="179.75" y="-225.8" font-family="Times,serif" font-size="14.00" fill="white">J</text>
<polyline fill="none" stroke="black" points="153,-219 206.5,-219 "/>
<text text-anchor="middle" x="179.75" y="-203.8" font-family="Times,serif" font-size="14.00" fill="white">2.0</text>
</g>
<!-- F&#45;&gt;J -->
<g id="edge10" class="edge"><title>F&#45;&gt;J</title>
<path fill="none" stroke="black" d="M170.63,-294.938C170.659,-284.416 171.016,-271.506 172.25,-260 172.561,-257.099 172.973,-254.094 173.446,-251.094"/>
<polygon fill="black" stroke="black" points="175.225,-241.073 177.907,-251.706 174.351,-245.996 173.477,-250.919 173.477,-250.919 173.477,-250.919 174.351,-245.996 169.046,-250.132 175.225,-241.073 175.225,-241.073"/>
<text text-anchor="middle" x="182.375" y="-263.5" font-family="Times,serif" font-size="15.00">1.0</text>
</g>
<!-- G&#45;&gt;J -->
<g id="edge11" class="edge"><title>G&#45;&gt;J</title>
<path fill="none" stroke="black" d="M229.018,-294.694C220.372,-281.52 209.145,-264.412 199.617,-249.893"/>
<polygon fill="black" stroke="black" points="193.943,-241.246 203.191,-247.137 196.686,-245.426 199.429,-249.606 199.429,-249.606 199.429,-249.606 196.686,-245.426 195.667,-252.075 193.943,-241.246 193.943,-241.246"/>
<text text-anchor="middle" x="225.375" y="-263.5" font-family="Times,serif" font-size="15.00">1.0</text>
</g>
<!-- K -->
<g id="K" class="node"><title>K</title>
<path fill="#428bca" stroke="black" d="M240,-197C240,-197 270,-197 270,-197 276,-197 282,-203 282,-209 282,-209 282,-229 282,-229 282,-235 276,-241 270,-241 270,-241 240,-241 240,-241 234,-241 228,-235 228,-229 228,-229 228,-209 228,-209 228,-203 234,-197 240,-197"/>
<text text-anchor="middle" x="254.75" y="-225.8" font-family="Times,serif" font-size="14.00" fill="white">K</text>
<polyline fill="none" stroke="black" points="228,-219 281.5,-219 "/>
<text text-anchor="middle" x="254.75" y="-203.8" font-family="Times,serif" font-size="14.00" fill="white">0.0</text>
</g>
<!-- G&#45;&gt;K -->
<g id="edge12" class="edge"><title>G&#45;&gt;K</title>
<path fill="none" stroke="black" d="M245.663,-294.694C247.248,-282.017 249.288,-265.697 251.057,-251.547"/>
<polygon fill="black" stroke="black" points="252.344,-241.246 255.569,-251.727 251.724,-246.207 251.104,-251.169 251.104,-251.169 251.104,-251.169 251.724,-246.207 246.639,-250.611 252.344,-241.246 252.344,-241.246"/>
<text text-anchor="middle" x="259.375" y="-263.5" font-family="Times,serif" font-size="15.00">1.0</text>
</g>
<!-- L -->
<g id="L" class="node"><title>L</title>
<path fill="#428bca" stroke="black" d="M12,-99C12,-99 42,-99 42,-99 48,-99 54,-105 54,-111 54,-111 54,-131 54,-131 54,-137 48,-143 42,-143 42,-143 12,-143 12,-143 6,-143 0,-137 0,-131 0,-131 0,-111 0,-111 0,-105 6,-99 12,-99"/>
<text text-anchor="middle" x="26.75" y="-127.8" font-family="Times,serif" font-size="14.00" fill="white">L</text>
<polyline fill="none" stroke="black" points="0,-121 53.5,-121 "/>
<text text-anchor="middle" x="26.75" y="-105.8" font-family="Times,serif" font-size="14.00" fill="white">7.0</text>
</g>
<!-- H&#45;&gt;L -->
<g id="edge13" class="edge"><title>H&#45;&gt;L</title>
<path fill="none" stroke="black" d="M27,-196.694C27,-184.017 27,-167.697 27,-153.547"/>
<polygon fill="black" stroke="black" points="27,-143.246 31.5001,-153.246 27,-148.246 27.0001,-153.246 27.0001,-153.246 27.0001,-153.246 27,-148.246 22.5001,-153.246 27,-143.246 27,-143.246"/>
<text text-anchor="middle" x="36.375" y="-165.5" font-family="Times,serif" font-size="15.00">1.0</text>
</g>
<!-- M -->
<g id="M" class="node"><title>M</title>
<path fill="#428bca" stroke="black" d="M12,-1C12,-1 42,-1 42,-1 48,-1 54,-7 54,-13 54,-13 54,-33 54,-33 54,-39 48,-45 42,-45 42,-45 12,-45 12,-45 6,-45 0,-39 0,-33 0,-33 0,-13 0,-13 0,-7 6,-1 12,-1"/>
<text text-anchor="middle" x="26.75" y="-29.8" font-family="Times,serif" font-size="14.00" fill="white">M</text>
<polyline fill="none" stroke="black" points="0,-23 53.5,-23 "/>
<text text-anchor="middle" x="26.75" y="-7.8" font-family="Times,serif" font-size="14.00" fill="white">0.0</text>
</g>
<!-- L&#45;&gt;M -->
<g id="edge14" class="edge"><title>L&#45;&gt;M</title>
<path fill="none" stroke="black" d="M27,-98.6945C27,-86.0171 27,-69.6971 27,-55.5472"/>
<polygon fill="black" stroke="black" points="27,-45.246 31.5001,-55.2459 27,-50.246 27.0001,-55.246 27.0001,-55.246 27.0001,-55.246 27,-50.246 22.5001,-55.246 27,-45.246 27,-45.246"/>
<text text-anchor="middle" x="36.375" y="-67.5" font-family="Times,serif" font-size="15.00">1.0</text>
</g>
</g>
</svg>
