<?xml version="1.0" encoding="UTF-8" standalone="no"?>
<!DOCTYPE svg PUBLIC "-//W3C//DTD SVG 1.1//EN"
 "http://www.w3.org/Graphics/SVG/1.1/DTD/svg11.dtd">
<!-- Generated by graphviz version 2.26.3 (20100126.1600)
 -->
<!-- Title: G Pages: 1 -->
<svg width="62pt" height="152pt"
 viewBox="0.00 0.00 62.00 152.00" xmlns="http://www.w3.org/2000/svg" xmlns:xlink="http://www.w3.org/1999/xlink">
<g id="graph1" class="graph" transform="scale(1 1) rotate(0) translate(4 148)">
<title>G</title>
<polygon fill="white" stroke="white" points="-4,5 -4,-148 59,-148 59,5 -4,5"/>
<!-- A -->
<g id="node1" class="node"><title>A</title>
<polygon fill="#294b76" stroke="#294b76" points="12,-91 42,-91 54,-103 54,-131 42,-143 12,-143 0,-131 0,-103 12,-91"/>
<path fill="#294b76" stroke="#294b76" d="M42,-91C48,-91 54,-97 54,-103"/>
<path fill="#294b76" stroke="#294b76" d="M54,-131C54,-137 48,-143 42,-143"/>
<path fill="#294b76" stroke="#294b76" d="M12,-143C6,-143 0,-137 0,-131"/>
<path fill="#294b76" stroke="#294b76" d="M0,-103C0,-97 6,-91 12,-91"/>
<polyline fill="none" stroke="black" points="12,-91 42,-91 "/>
<path fill="none" stroke="black" d="M42,-91C48,-91 54,-97 54,-103"/>
<polyline fill="none" stroke="black" points="54,-103 54,-131 "/>
<path fill="none" stroke="black" d="M54,-131C54,-137 48,-143 42,-143"/>
<polyline fill="none" stroke="black" points="42,-143 12,-143 "/>
<path fill="none" stroke="black" d="M12,-143C6,-143 0,-137 0,-131"/>
<polyline fill="none" stroke="black" points="0,-131 0,-103 "/>
<path fill="none" stroke="black" d="M0,-103C0,-97 6,-91 12,-91"/>
<text text-anchor="middle" x="27" y="-126.4" font-family="Trebuchet MS" font-size="14.00" fill="white">A</text>
<polyline fill="none" stroke="black" points="0,-117 54,-117 "/>
<text text-anchor="middle" x="27" y="-100.4" font-family="Trebuchet MS" font-size="14.00" fill="white">2</text>
</g>
<!-- B -->
<g id="node2" class="node"><title>B</title>
<polyline fill="none" stroke="black" points="12,-1 42,-1 "/>
<path fill="none" stroke="black" d="M42,-1C48,-1 54,-7 54,-13"/>
<polyline fill="none" stroke="black" points="54,-13 54,-41 "/>
<path fill="none" stroke="black" d="M54,-41C54,-47 48,-53 42,-53"/>
<polyline fill="none" stroke="black" points="42,-53 12,-53 "/>
<path fill="none" stroke="black" d="M12,-53C6,-53 0,-47 0,-41"/>
<polyline fill="none" stroke="black" points="0,-41 0,-13 "/>
<path fill="none" stroke="black" d="M0,-13C0,-7 6,-1 12,-1"/>
<text text-anchor="middle" x="27" y="-36.4" font-family="Times Roman,serif" font-size="14.00">B</text>
<polyline fill="none" stroke="black" points="0,-27 54,-27 "/>
<text text-anchor="middle" x="27" y="-10.4" font-family="Times Roman,serif" font-size="14.00">5</text>
</g>
<!-- A&#45;&gt;B -->
<g id="edge2" class="edge"><title>A&#45;&gt;B</title>
<path fill="none" stroke="black" d="M27,-90.9683C27,-82.3682 27,-72.6369 27,-63.4065"/>
<polygon fill="black" stroke="black" points="30.5001,-63.285 27,-53.285 23.5001,-63.2851 30.5001,-63.285"/>
</g>
</g>
</svg>
